<?xml version="1.0" standalone="no"?>
<!DOCTYPE svg PUBLIC "-//W3C//DTD SVG 20010904//EN"
 "http://www.w3.org/TR/2001/REC-SVG-20010904/DTD/svg10.dtd">
<svg version="1.0" xmlns="http://www.w3.org/2000/svg"
 width="1200.000000pt" height="526.000000pt" viewBox="0 0 1200.000000 526.000000"
 preserveAspectRatio="xMidYMid meet">

<g transform="translate(0.000000,526.000000) scale(0.100000,-0.100000)"
fill="#000000" stroke="none">
<path d="M0 2630 l0 -2630 6000 0 6000 0 0 2630 0 2630 -6000 0 -6000 0 0
-2630z m2155 1696 c160 -10 364 -78 498 -165 71 -47 217 -179 217 -198 0 -7
-100 -101 -307 -287 l-43 -38 -71 66 c-159 147 -354 195 -566 140 -160 -42
-285 -157 -350 -321 -26 -64 -27 -78 -27 -223 0 -145 1 -159 27 -223 70 -178
205 -292 394 -332 188 -40 379 15 524 152 l69 65 42 -38 c205 -183 308 -279
308 -287 0 -5 -35 -43 -79 -85 -129 -127 -302 -216 -501 -259 -132 -28 -443
-25 -565 5 -424 106 -725 428 -785 841 -18 117 -8 322 20 431 110 426 487 728
950 759 58 4 119 6 135 4 17 -1 66 -4 110 -7z m2733 -50 c197 -38 333 -106
452 -226 94 -93 144 -179 177 -300 24 -89 24 -290 0 -380 -42 -160 -143 -298
-288 -392 l-78 -51 43 -61 c148 -210 376 -547 376 -556 0 -7 -94 -9 -297 -8
l-296 3 -179 263 -179 262 -155 0 -154 0 0 -265 0 -265 -280 0 -280 0 0 1001
0 1001 528 -5 c424 -4 543 -8 610 -21z m2092 -611 c6 -668 5 -657 56 -757 49
-96 121 -146 242 -168 162 -29 318 35 384 157 62 113 62 110 66 786 l3 617
275 0 275 0 -4 -652 c-4 -696 -4 -690 -55 -838 -104 -298 -346 -484 -690 -530
-141 -20 -372 -8 -496 24 -325 84 -521 291 -599 631 -19 85 -21 128 -24 714
-3 342 -2 629 1 637 5 12 51 14 283 12 l278 -3 5 -630z m3680 611 c380 -67
669 -285 790 -598 47 -122 63 -217 63 -378 0 -288 -76 -490 -253 -671 -122
-125 -250 -204 -422 -260 -176 -57 -222 -61 -820 -66 l-548 -5 0 1002 0 1002
548 -5 c448 -4 564 -8 642 -21z m-3142 -2648 l2 -188 -55 0 c-30 0 -55 4 -55
9 0 5 -17 3 -39 -5 -50 -17 -97 -5 -136 36 -23 24 -29 41 -33 87 -3 49 0 64
20 93 13 19 35 40 48 47 32 16 102 17 118 1 9 -9 12 2 12 50 l0 63 58 -3 57
-3 3 -187z m2912 2 l0 -190 -55 0 -55 0 0 190 0 190 55 0 55 0 0 -190z m-3850
42 c5 -130 10 -142 56 -142 40 0 49 26 53 152 l3 118 54 0 54 0 0 -132 c0
-116 -3 -137 -20 -166 -60 -99 -255 -91 -304 12 -12 26 -16 65 -16 161 l0 126
58 -3 57 -3 5 -123z m3274 99 c131 -64 126 -251 -9 -312 -31 -15 -65 -19 -157
-19 l-118 0 0 173 c0 96 3 177 8 181 4 5 57 6 119 3 87 -3 121 -9 157 -26z
m-4606 -183 l2 -188 -55 0 c-30 0 -55 4 -55 9 0 5 -17 3 -39 -5 -50 -17 -97
-5 -136 36 -23 24 -29 41 -33 87 -3 49 0 64 20 93 13 19 35 40 48 47 32 16
102 17 118 1 9 -9 12 2 12 50 l0 63 58 -3 57 -3 3 -187z m2772 152 c0 -38 2
-40 30 -40 28 0 30 -2 30 -40 0 -38 -2 -40 -31 -40 -30 0 -30 -1 -27 -47 3
-43 6 -48 26 -47 17 0 25 -8 34 -38 6 -21 8 -41 5 -44 -11 -12 -112 -7 -136 5
-30 16 -51 69 -51 126 0 38 -3 45 -20 45 -17 0 -20 7 -20 40 0 33 3 40 20 40
17 0 20 7 20 40 l0 40 60 0 60 0 0 -40z m2920 0 c0 -38 2 -40 30 -40 28 0 30
-2 30 -40 0 -38 -2 -40 -30 -40 -28 0 -30 -2 -30 -39 0 -39 20 -68 39 -56 11
6 44 -62 36 -75 -8 -14 -61 -19 -101 -10 -60 14 -84 48 -84 121 0 52 -2 59
-20 59 -17 0 -20 7 -20 40 0 33 3 40 20 40 17 0 20 7 20 40 l0 40 55 0 55 0 0
-40z m-9593 9 c27 -10 73 -47 73 -58 0 -3 -16 -19 -35 -34 -33 -26 -37 -27
-57 -13 -36 26 -93 21 -117 -10 -65 -82 31 -187 112 -124 l26 21 38 -36 38
-35 -30 -25 c-82 -69 -228 -53 -292 32 -31 40 -42 121 -24 175 13 39 50 79 96
102 35 18 130 21 172 5z m2826 -14 c49 -23 71 -60 71 -118 0 -39 -5 -53 -31
-80 l-31 -32 25 -35 c50 -72 51 -70 -19 -70 l-63 0 -30 45 c-40 60 -65 60 -65
0 l0 -45 -60 0 -60 0 0 173 c0 96 3 177 8 181 13 15 216 0 255 -19z m-1703
-35 c0 -38 2 -40 30 -40 28 0 30 -2 30 -40 0 -38 -2 -40 -31 -40 -30 0 -30 -1
-27 -47 3 -43 6 -48 26 -47 17 0 25 -8 34 -38 6 -21 8 -41 5 -44 -11 -12 -112
-7 -136 5 -30 16 -51 69 -51 126 0 38 -3 45 -20 45 -17 0 -20 7 -20 40 0 33 3
40 20 40 17 0 20 7 20 40 l0 40 60 0 60 0 0 -40z m4496 9 c4 -8 9 -8 17 0 6 6
33 11 60 11 44 0 54 -4 88 -39 36 -36 39 -43 39 -95 0 -31 -7 -70 -15 -86 -26
-50 -94 -74 -157 -57 l-28 7 0 -55 0 -56 -57 3 -58 3 -3 175 c-1 96 0 180 2
187 7 16 102 18 112 2z m809 -3 c51 -22 65 -59 65 -171 l0 -95 -55 0 c-34 0
-55 4 -55 11 0 8 -5 8 -15 -1 -20 -17 -87 -18 -118 -1 -25 13 -47 49 -47 77 0
9 13 28 28 43 21 22 41 30 87 36 55 6 58 8 40 21 -18 14 -35 13 -87 -2 -12 -3
-22 5 -32 25 -9 17 -16 35 -16 40 0 28 149 40 205 17z m572 -6 c41 -25 63 -59
70 -110 l6 -40 -98 0 c-85 0 -96 -2 -85 -15 14 -17 53 -20 79 -5 14 7 24 3 47
-21 25 -26 27 -31 12 -45 -37 -37 -157 -37 -211 1 -58 41 -77 137 -35 190 51
65 149 86 215 45z m1858 6 c43 -18 75 -69 75 -118 l0 -37 -97 -3 c-93 -3 -96
-4 -70 -17 23 -12 34 -13 60 -3 28 11 34 9 59 -15 15 -15 28 -30 28 -35 0 -18
-68 -41 -121 -41 -64 0 -109 21 -143 66 -29 39 -29 115 0 154 43 58 135 80
209 49z m502 -6 c41 -25 63 -59 70 -110 l6 -40 -98 0 c-85 0 -96 -2 -85 -15
14 -17 53 -20 79 -5 14 7 24 3 47 -21 25 -26 27 -31 12 -45 -37 -37 -157 -37
-211 1 -58 41 -77 137 -35 190 51 65 149 86 215 45z m558 6 c43 -18 75 -69 75
-118 l0 -37 -97 -3 c-93 -3 -96 -4 -70 -17 23 -12 34 -13 60 -3 28 11 34 9 59
-15 15 -15 28 -30 28 -35 0 -18 -68 -41 -121 -41 -64 0 -109 21 -143 66 -29
39 -29 115 0 154 43 58 135 80 209 49z m-9700 -36 c4 -7 12 -7 25 0 10 5 28
10 39 10 18 0 21 -6 21 -50 0 -46 -2 -50 -24 -50 -43 0 -56 -24 -56 -106 l0
-74 -60 0 -60 0 0 133 c0 74 3 137 7 140 10 11 101 8 108 -3z m344 -8 c40 -22
71 -73 71 -119 l0 -32 -97 -3 c-93 -3 -96 -4 -70 -17 23 -12 34 -13 60 -3 30
12 33 11 59 -20 l27 -33 -31 -19 c-42 -27 -134 -26 -179 0 -135 79 -82 264 76
264 30 0 64 -8 84 -18z m316 4 c51 -22 65 -59 65 -171 l0 -95 -55 0 c-34 0
-55 4 -55 11 0 8 -5 8 -15 -1 -20 -17 -87 -18 -118 -1 -25 13 -47 49 -47 77 0
9 13 28 28 43 21 22 41 30 87 36 55 6 58 8 40 21 -18 14 -35 13 -87 -2 -12 -3
-22 5 -32 25 -9 17 -16 35 -16 40 0 28 149 40 205 17z m572 -6 c41 -25 63 -59
70 -110 l6 -40 -98 0 c-85 0 -96 -2 -85 -15 14 -17 53 -20 79 -5 14 7 24 3 47
-21 25 -26 27 -31 12 -45 -37 -37 -157 -37 -211 1 -58 41 -77 137 -35 190 51
65 149 86 215 45z m1712 2 c40 -22 71 -73 71 -119 l0 -32 -97 -3 c-93 -3 -96
-4 -70 -17 23 -12 34 -13 60 -3 30 12 33 11 59 -20 l27 -33 -31 -19 c-42 -27
-134 -26 -179 0 -135 79 -82 264 76 264 30 0 64 -8 84 -18z m316 4 c51 -22 65
-59 65 -171 l0 -95 -55 0 c-34 0 -55 4 -55 11 0 8 -5 8 -15 -1 -20 -17 -87
-18 -118 -1 -25 13 -47 49 -47 77 0 9 13 28 28 43 21 22 41 30 87 36 55 6 58
8 40 21 -18 14 -35 13 -87 -2 -12 -3 -22 5 -32 25 -9 17 -16 35 -16 40 0 28
149 40 205 17z"/>
<path d="M4310 3560 l0 -292 218 4 c253 6 287 14 363 87 106 104 107 294 0
401 -75 75 -108 83 -363 88 l-218 4 0 -292z"/>
<path d="M10030 3299 l0 -541 258 4 c248 4 259 5 326 30 177 68 288 197 322
375 50 265 -48 503 -253 611 -98 52 -167 62 -425 62 l-228 0 0 -541z"/>
<path d="M7331 1616 c-7 -8 -11 -30 -9 -48 3 -30 6 -33 38 -33 32 0 35 3 38
33 4 37 -12 62 -38 62 -10 0 -23 -6 -29 -14z"/>
<path d="M9692 1618 l3 -83 43 1 c58 1 87 29 87 85 0 54 -30 79 -92 79 l-44 0
3 -82z"/>
<path d="M5061 1576 c-7 -8 -11 -30 -9 -48 3 -30 6 -33 38 -33 32 0 35 3 38
33 4 37 -12 62 -38 62 -10 0 -23 -6 -29 -14z"/>
<path d="M4030 1621 c0 -40 1 -41 33 -41 45 0 59 12 55 46 -3 26 -7 29 -45 32
l-43 3 0 -40z"/>
<path d="M6982 1618 c-7 -7 -12 -24 -12 -38 0 -52 61 -71 82 -25 23 51 -32
101 -70 63z"/>
<path d="M7677 1543 c-15 -15 -6 -33 17 -33 20 0 36 16 36 36 0 7 -46 5 -53
-3z"/>
<path d="M8237 1633 c-16 -15 -4 -23 34 -23 36 0 40 2 29 15 -13 15 -51 20
-63 8z"/>
<path d="M10097 1634 c-16 -16 -5 -24 34 -24 28 0 39 4 37 13 -5 13 -60 22
-71 11z"/>
<path d="M10597 1633 c-16 -15 -4 -23 34 -23 36 0 40 2 29 15 -13 15 -51 20
-63 8z"/>
<path d="M11157 1634 c-16 -16 -5 -24 34 -24 28 0 39 4 37 13 -5 13 -60 22
-71 11z"/>
<path d="M1797 1593 c-16 -15 -4 -23 34 -23 36 0 40 2 29 15 -13 15 -51 20
-63 8z"/>
<path d="M2127 1503 c-15 -15 -6 -33 17 -33 20 0 36 16 36 36 0 7 -46 5 -53
-3z"/>
<path d="M2687 1593 c-16 -15 -4 -23 34 -23 36 0 40 2 29 15 -13 15 -51 20
-63 8z"/>
<path d="M4397 1593 c-16 -15 -4 -23 34 -23 36 0 40 2 29 15 -13 15 -51 20
-63 8z"/>
<path d="M4727 1503 c-15 -15 -6 -33 17 -33 20 0 36 16 36 36 0 7 -46 5 -53
-3z"/>
</g>
</svg>
